<svg width="21" height="20" viewBox="0 0 21 20" fill="none" xmlns="http://www.w3.org/2000/svg">
<path d="M10.0215 20C15.5562 20 20.043 15.5228 20.043 10C20.043 4.47715 15.5562 0 10.0215 0C4.48677 0 0 4.47715 0 10C0 15.5228 4.48677 20 10.0215 20Z" fill="#0029FF"/>
<path d="M5.67891 10.668C6.23238 10.668 6.68105 10.2203 6.68105 9.66797C6.68105 9.11568 6.23238 8.66797 5.67891 8.66797C5.12543 8.66797 4.67676 9.11568 4.67676 9.66797C4.67676 10.2203 5.12543 10.668 5.67891 10.668Z" fill="white"/>
<path opacity="0.1" d="M6.34687 8C6.90035 8 7.34902 7.55228 7.34902 7C7.34902 6.44772 6.90035 6 6.34687 6C5.7934 6 5.34473 6.44772 5.34473 7C5.34473 7.55228 5.7934 8 6.34687 8Z" fill="white"/>
<path opacity="0.1" d="M6.34687 13.332C6.90035 13.332 7.34902 12.8843 7.34902 12.332C7.34902 11.7797 6.90035 11.332 6.34687 11.332C5.7934 11.332 5.34473 11.7797 5.34473 12.332C5.34473 12.8843 5.7934 13.332 6.34687 13.332Z" fill="white"/>
<path opacity="0.1" d="M14.3645 13.332C14.9179 13.332 15.3666 12.8843 15.3666 12.332C15.3666 11.7797 14.9179 11.332 14.3645 11.332C13.811 11.332 13.3623 11.7797 13.3623 12.332C13.3623 12.8843 13.811 13.332 14.3645 13.332Z" fill="white"/>
<path opacity="0.1" d="M14.3645 8C14.9179 8 15.3666 7.55228 15.3666 7C15.3666 6.44772 14.9179 6 14.3645 6C13.811 6 13.3623 6.44772 13.3623 7C13.3623 7.55228 13.811 8 14.3645 8Z" fill="white"/>
<path d="M8.35127 15.332C8.90474 15.332 9.35342 14.8843 9.35342 14.332C9.35342 13.7797 8.90474 13.332 8.35127 13.332C7.7978 13.332 7.34912 13.7797 7.34912 14.332C7.34912 14.8843 7.7978 15.332 8.35127 15.332Z" fill="white"/>
<path d="M12.3596 15.332C12.913 15.332 13.3617 14.8843 13.3617 14.332C13.3617 13.7797 12.913 13.332 12.3596 13.332C11.8061 13.332 11.3574 13.7797 11.3574 14.332C11.3574 14.8843 11.8061 15.332 12.3596 15.332Z" fill="white"/>
<path d="M15.0324 10.668C15.5859 10.668 16.0346 10.2203 16.0346 9.66797C16.0346 9.11568 15.5859 8.66797 15.0324 8.66797C14.479 8.66797 14.0303 9.11568 14.0303 9.66797C14.0303 10.2203 14.479 10.668 15.0324 10.668Z" fill="white"/>
<path d="M10.3557 10.668C10.9091 10.668 11.3578 10.2203 11.3578 9.66797C11.3578 9.11568 10.9091 8.66797 10.3557 8.66797C9.80219 8.66797 9.35352 9.11568 9.35352 9.66797C9.35352 10.2203 9.80219 10.668 10.3557 10.668Z" fill="white"/>
<path d="M12.3596 6C12.913 6 13.3617 5.55228 13.3617 5C13.3617 4.44772 12.913 4 12.3596 4C11.8061 4 11.3574 4.44772 11.3574 5C11.3574 5.55228 11.8061 6 12.3596 6Z" fill="white"/>
<path d="M8.35127 6C8.90474 6 9.35342 5.55228 9.35342 5C9.35342 4.44772 8.90474 4 8.35127 4C7.7978 4 7.34912 4.44772 7.34912 5C7.34912 5.55228 7.7978 6 8.35127 6Z" fill="white"/>
<path d="M5.67871 9.66797H10.3554L12.3597 14.3346H8.35111" stroke="white"/>
<path d="M8.35156 5H12.3602" stroke="white"/>
</svg>
